<?xml version="1.0" standalone="no"?>
<!DOCTYPE svg PUBLIC "-//W3C//DTD SVG 20010904//EN"
 "http://www.w3.org/TR/2001/REC-SVG-20010904/DTD/svg10.dtd">
<svg version="1.0" xmlns="http://www.w3.org/2000/svg"
 width="984.000000pt" height="984.000000pt" viewBox="0 0 984.000000 984.000000"
 preserveAspectRatio="xMidYMid meet">
<metadata>
Created by potrace 1.14, written by Peter Selinger 2001-2017
</metadata>
<g transform="translate(0.000000,984.000000) scale(0.100000,-0.100000)"
fill="#000000" stroke="none">
<path d="M4764 9586 c-78 -61 -156 -122 -174 -136 -18 -14 -38 -30 -44 -35 -6
-6 -32 -26 -58 -45 -27 -18 -48 -37 -48 -42 0 -4 -4 -8 -10 -8 -10 0 -44 -26
-82 -62 -10 -10 -22 -18 -27 -18 -5 0 -11 -3 -13 -8 -1 -4 -28 -26 -58 -49
-30 -24 -59 -46 -65 -51 -5 -4 -53 -41 -105 -82 -52 -41 -97 -77 -100 -80 -3
-3 -43 -34 -90 -70 -86 -66 -122 -95 -146 -118 -8 -7 -14 -11 -14 -8 0 2 -10
-4 -22 -15 -19 -16 -277 -219 -313 -247 -40 -30 -101 -77 -105 -82 -15 -16
-110 -90 -115 -90 -3 0 -16 -9 -28 -20 -60 -53 -105 -90 -111 -90 -3 0 -14 -8
-25 -17 -20 -20 -10 -12 -286 -227 -110 -86 -207 -162 -215 -169 -8 -7 -35
-28 -60 -47 -25 -19 -50 -39 -57 -45 -15 -12 -25 -20 -83 -65 -65 -50 -63 -49
-86 -68 -12 -9 -36 -28 -54 -42 -18 -14 -81 -63 -139 -108 -58 -46 -121 -96
-140 -110 -19 -15 -52 -42 -75 -59 -23 -18 -52 -41 -66 -52 -58 -45 -146 -116
-158 -128 -7 -7 -16 -13 -20 -13 -4 0 -21 -14 -39 -30 -18 -17 -36 -30 -42
-30 -5 0 -11 -3 -13 -8 -1 -4 -39 -35 -83 -70 -44 -35 -87 -68 -95 -75 -8 -7
-44 -35 -80 -62 -36 -28 -70 -54 -76 -60 -6 -5 -46 -37 -88 -70 -43 -33 -115
-89 -160 -125 -45 -36 -97 -76 -115 -90 -18 -13 -43 -33 -56 -45 -13 -11 -42
-33 -64 -49 -23 -17 -41 -33 -41 -38 0 -4 -7 -8 -15 -8 -8 0 -15 -3 -15 -7 0
-5 -17 -19 -37 -33 -20 -13 -52 -39 -72 -57 l-36 -32 208 2 c114 1 207 -2 207
-6 0 -5 5 -5 10 -2 15 9 790 11 790 2 0 -5 5 -5 10 -2 16 10 470 11 470 2 0
-5 5 -5 10 -2 15 9 1750 11 1750 2 0 -5 5 -5 10 -2 16 10 470 11 470 2 0 -5 5
-5 10 -2 15 10 470 11 470 2 0 -5 5 -5 10 -2 16 10 470 11 470 2 0 -5 5 -5 10
-2 15 10 470 11 470 2 0 -5 5 -5 10 -2 16 10 470 11 470 2 0 -5 5 -5 10 -2 16
10 1750 11 1750 2 0 -5 5 -5 10 -2 16 10 470 11 470 2 0 -5 5 -5 10 -2 15 9
790 11 790 2 0 -4 8 -3 19 2 10 6 21 7 25 4 3 -3 6 -1 6 5 0 7 -4 12 -8 12 -5
0 -17 8 -28 18 -10 9 -46 37 -79 62 -33 25 -62 47 -65 50 -3 3 -25 21 -50 40
-25 19 -50 39 -57 45 -23 19 -38 31 -78 60 -22 17 -46 35 -55 42 -8 7 -64 51
-125 99 -60 47 -123 96 -140 110 -16 13 -106 83 -200 155 -93 73 -172 135
-175 138 -3 3 -47 37 -97 76 -51 38 -93 73 -93 77 0 5 -7 8 -15 8 -8 0 -15 3
-15 8 -1 4 -24 23 -51 42 -28 19 -63 46 -78 60 -15 14 -34 30 -43 35 -16 10
-158 120 -333 259 -55 43 -101 83 -103 87 -2 5 -8 9 -13 9 -8 0 -46 29 -144
108 -11 9 -76 60 -145 113 -69 54 -174 136 -235 184 -60 47 -123 96 -139 108
-16 12 -66 51 -112 87 -45 36 -97 76 -115 90 -18 14 -58 45 -89 70 -31 25 -72
56 -90 70 -51 39 -243 189 -265 208 -11 10 -36 28 -55 42 -19 13 -37 27 -40
30 -3 4 -36 31 -75 60 -38 30 -76 60 -83 67 -7 7 -16 13 -20 13 -4 0 -25 16
-47 36 -22 19 -60 49 -85 67 -25 17 -49 36 -55 43 -5 6 -28 25 -50 40 -23 16
-47 35 -55 42 -15 12 -157 123 -213 166 -16 11 -34 26 -40 31 -24 20 -104 83
-192 150 -49 38 -95 74 -102 80 -6 5 -26 21 -44 35 -18 14 -37 30 -43 36 -39
38 -45 36 -192 -80z m278 -1089 c4 2 9 -1 13 -6 3 -6 12 -8 19 -5 17 7 164
-36 239 -70 205 -92 382 -276 470 -486 54 -133 70 -207 71 -350 1 -111 -2
-153 -18 -225 -20 -96 -100 -275 -143 -323 -7 -7 -13 -17 -13 -22 0 -20 -188
-198 -243 -230 -194 -116 -334 -156 -527 -153 -120 3 -192 14 -285 45 -78 26
-223 101 -257 133 -15 14 -31 25 -35 25 -14 0 -149 147 -185 202 -51 76 -90
148 -81 148 4 0 3 4 -3 8 -14 9 -62 161 -72 227 -13 89 -6 285 12 355 19 71
43 141 63 180 7 14 13 31 13 38 0 6 5 12 10 12 6 0 10 5 10 11 0 14 70 117
108 161 114 129 306 255 435 284 4 1 9 3 12 4 3 1 10 4 15 5 6 1 11 3 13 5 6
5 109 20 175 24 29 2 55 6 57 8 3 2 30 1 62 -3 32 -3 61 -5 65 -2z"/>
<path d="M4850 8013 c-46 -7 -150 -45 -150 -54 0 -5 -7 -9 -15 -9 -8 0 -43
-28 -79 -62 -60 -60 -111 -140 -120 -190 -3 -13 -5 -23 -6 -23 -10 0 -15 -140
-7 -190 9 -56 37 -133 52 -145 8 -7 15 -18 15 -24 0 -22 108 -122 162 -150 77
-40 115 -51 190 -55 188 -9 356 89 434 254 39 82 47 117 45 205 -1 66 -2 72
-16 125 -17 64 -77 160 -130 207 -90 81 -254 129 -375 111z"/>
<path d="M933 5702 l-222 -2 2 -333 c2 -289 4 -332 17 -328 17 3 38 3 88 -2
17 -2 32 1 32 5 0 5 8 5 17 -1 10 -5 26 -5 41 0 13 5 21 5 18 0 -3 -4 13 -5
34 -1 22 4 43 4 46 -1 2 -4 16 -4 29 1 15 6 27 6 30 0 3 -6 15 -6 30 0 14 5
25 6 25 2 0 -4 25 -7 55 -7 30 0 55 3 55 7 0 4 10 4 23 0 12 -5 31 -7 42 -7
20 2 20 -4 19 -1619 -1 -892 -2 -1626 -3 -1631 -1 -6 -13 -12 -27 -13 -45 -4
-102 -22 -118 -37 -8 -8 -19 -15 -24 -15 -17 0 -84 -81 -104 -127 -10 -24 -21
-76 -24 -115 -3 -40 -7 -75 -10 -79 -2 -5 -116 -8 -253 -8 -137 0 -257 -3
-267 -7 -73 -23 -124 -76 -141 -144 -2 -8 -4 -121 -4 -250 l-2 -235 -96 -1
c-104 -1 -161 -20 -191 -64 -8 -13 -19 -28 -25 -34 -5 -6 -12 -18 -15 -26 -10
-31 -11 -320 0 -357 12 -46 52 -93 100 -119 34 -18 169 -18 4795 -19 5134 -1
4808 -5 4868 51 57 53 62 73 62 266 l0 176 -30 44 c-32 46 -107 92 -137 84
-10 -2 -18 0 -18 4 0 5 -13 5 -28 0 -16 -4 -36 -4 -45 1 -9 6 -26 5 -41 -1
-23 -9 -26 -7 -34 23 -5 18 -5 37 -1 43 5 6 7 13 4 16 -4 3 -6 63 -4 118 0 8
0 75 -1 148 -2 167 -16 205 -100 263 -34 23 -36 24 -312 24 l-278 0 -1 35 c-2
95 -11 134 -40 190 -22 42 -64 90 -79 90 -5 0 -10 4 -10 10 0 12 -80 47 -123
53 -19 2 -39 7 -43 10 -13 8 -12 3252 1 3250 6 0 18 3 28 8 9 5 17 6 17 2 0
-4 11 -8 25 -8 14 0 25 2 25 5 0 7 69 4 76 -3 3 -3 17 -2 30 3 14 6 26 6 29 0
3 -6 15 -6 30 0 14 5 25 6 25 2 0 -4 25 -7 55 -7 30 0 55 3 55 7 0 4 11 3 24
-2 15 -5 27 -5 34 2 6 6 12 6 16 -1 5 -7 15 -7 31 -1 14 5 25 6 25 2 0 -4 14
-7 32 -6 l32 1 1 328 c0 220 -3 329 -11 332 -11 4 -7811 10 -8161 5z m1623
-666 c30 0 54 3 54 7 0 4 8 4 17 -2 10 -5 26 -5 39 -1 12 5 24 7 27 4 8 -9 77
-10 77 -2 0 5 8 4 19 -1 10 -6 21 -8 24 -5 8 8 105 9 113 1 3 -3 17 -2 30 3
14 6 26 6 29 0 3 -6 15 -6 30 0 14 5 25 6 25 1 0 -5 12 -6 28 -2 15 4 39 4 55
0 15 -4 27 -4 27 1 0 6 10 6 25 0 16 -6 26 -6 31 1 4 7 10 7 16 1 7 -7 19 -7
34 -2 14 6 24 6 24 1 0 -5 12 -6 28 -2 15 4 39 4 55 0 15 -4 27 -4 27 1 0 6
10 6 25 0 15 -6 26 -6 30 1 4 5 11 6 17 3 16 -10 108 -11 108 -1 0 4 8 4 17
-2 10 -5 26 -5 39 -1 12 5 24 7 27 4 8 -9 77 -10 77 -2 0 5 8 4 19 -1 10 -6
21 -8 24 -5 8 8 213 8 226 0 5 -4 12 -2 16 4 4 7 12 7 23 1 10 -6 23 -6 34 0
10 5 19 5 23 0 3 -5 17 -6 33 -2 15 5 37 5 49 0 13 -5 25 -4 28 2 4 6 13 6 23
0 10 -6 23 -6 34 0 10 6 19 5 23 -1 4 -6 15 -6 30 0 14 5 25 6 25 2 0 -4 14
-7 30 -7 17 0 30 4 30 8 0 5 5 5 11 1 16 -9 119 -11 119 -1 0 4 8 4 17 -2 10
-5 26 -5 39 -1 12 5 24 7 27 4 8 -9 77 -10 77 -2 0 5 8 4 19 -1 10 -6 21 -8
24 -5 8 8 105 9 113 1 3 -3 17 -2 30 3 14 6 26 6 29 0 3 -6 15 -6 30 0 14 5
25 6 25 1 0 -5 12 -6 28 -2 15 4 39 4 55 0 15 -4 27 -4 27 1 0 6 10 6 25 0 16
-6 26 -6 31 1 4 7 10 7 16 1 7 -7 19 -7 34 -2 14 6 24 6 24 1 0 -5 12 -6 28
-2 15 4 39 4 55 0 15 -4 27 -4 27 1 0 6 10 6 25 0 15 -6 26 -6 30 1 4 5 11 6
17 3 16 -10 108 -11 108 -1 0 4 8 4 17 -2 10 -5 26 -5 39 -1 12 5 24 7 27 4 8
-9 77 -10 77 -2 0 5 8 4 19 -1 10 -6 21 -8 24 -5 8 8 213 8 226 0 5 -4 12 -2
16 4 4 7 12 7 23 1 10 -6 23 -6 34 0 10 5 19 5 23 0 3 -5 17 -6 33 -2 15 5 37
5 49 0 13 -5 25 -4 28 2 4 6 13 6 23 0 10 -6 23 -6 34 0 10 6 19 5 23 -1 4 -6
15 -6 30 0 14 5 25 6 25 2 0 -4 14 -7 30 -7 17 0 30 4 30 8 0 5 5 5 11 1 16
-9 119 -11 119 -1 0 4 8 4 17 -2 10 -5 26 -5 39 -1 12 5 24 7 27 4 8 -9 77
-10 77 -2 0 5 8 4 19 -1 10 -6 21 -8 24 -5 8 8 105 9 113 1 3 -3 17 -2 30 3
14 6 26 6 29 0 3 -6 15 -6 30 0 14 5 25 6 25 1 0 -5 12 -6 28 -2 15 4 39 4 55
0 15 -4 27 -4 27 1 0 6 10 6 25 0 16 -6 26 -6 31 1 4 7 10 7 16 1 7 -7 19 -7
34 -2 14 6 24 6 24 1 0 -5 12 -6 28 -2 15 4 39 4 55 0 15 -4 27 -4 27 1 0 6
10 6 25 0 15 -6 26 -6 30 1 4 5 11 6 17 3 6 -4 31 -7 54 -7 l43 1 0 -1634 -1
-1634 -26 -1 c-88 -1 -222 -105 -247 -189 -14 -48 -18 -73 -19 -124 l-1 -61
-2197 -2 -2197 -2 0 67 c-1 114 -38 196 -118 257 -46 35 -144 72 -162 61 -5
-3 -11 0 -13 7 -2 6 -3 741 -3 1632 l1 1620 32 0 c18 0 32 3 32 8 0 4 5 5 11
1 6 -3 35 -7 65 -8z"/>
<path d="M3680 4799 c-19 -4 -55 -10 -80 -13 -25 -2 -45 -5 -45 -6 0 -1 -9 -3
-20 -5 -11 -2 -25 -11 -31 -19 -6 -9 -13 -13 -16 -10 -10 10 -29 -82 -27 -131
0 -11 0 -47 0 -80 -1 -33 -1 -69 0 -80 0 -11 1 -40 2 -65 l2 -45 -151 -1
c-153 -1 -214 -12 -214 -39 0 -8 -6 -15 -12 -17 -17 -6 -22 -2347 -5 -2393 13
-36 43 -65 69 -66 10 -1 24 -2 31 -3 6 -1 44 9 84 21 40 12 82 25 95 27 50 11
75 16 118 26 90 20 137 28 283 45 195 24 465 24 582 0 11 -2 42 -7 70 -11 27
-3 60 -10 72 -15 13 -5 23 -6 23 -4 0 2 12 0 28 -6 15 -6 36 -13 46 -15 61
-12 258 -84 267 -98 12 -16 93 -10 129 10 19 10 37 19 40 19 3 1 18 7 33 13
16 7 34 12 41 12 7 0 16 3 20 7 3 4 12 8 19 10 7 1 44 12 82 23 87 25 115 32
138 32 9 -1 17 2 17 6 0 4 10 7 23 8 12 0 42 3 67 7 122 20 365 26 495 13 73
-8 156 -17 185 -22 14 -2 39 -6 55 -8 42 -6 97 -16 115 -21 8 -2 31 -7 50 -11
45 -8 65 -12 65 -14 0 -1 11 -3 24 -6 13 -2 61 -15 106 -28 45 -13 94 -22 108
-19 30 6 77 55 78 81 0 9 1 545 1 1189 0 1079 -1 1175 -16 1198 -26 40 -60 48
-216 49 l-145 1 -1 175 c-1 96 -2 180 -3 187 -2 24 -55 61 -96 67 -23 4 -55 9
-71 12 -45 9 -312 9 -374 0 -30 -4 -68 -9 -85 -11 -32 -4 -69 -11 -150 -29
-151 -35 -302 -99 -426 -182 -91 -61 -102 -71 -188 -158 l-59 -59 -38 43
c-138 153 -276 247 -477 324 -37 15 -78 28 -90 30 -12 3 -22 5 -22 6 0 2 -9 4
-80 20 -50 11 -77 15 -145 25 -58 9 -343 11 -380 4z m330 -218 c0 -3 24 -7 53
-8 51 -3 170 -31 240 -56 21 -8 46 -16 52 -17 29 -4 207 -105 213 -121 2 -5 8
-9 14 -9 17 0 138 -122 184 -186 l44 -62 0 -916 0 -916 -67 44 c-76 49 -243
138 -243 130 0 -3 -15 3 -32 12 -60 31 -68 34 -86 34 -10 0 -22 4 -27 9 -6 4
-62 22 -125 39 -141 38 -186 46 -323 56 -38 3 -72 8 -78 11 -5 4 -9 1 -9 -5 0
-6 -5 -8 -12 -4 -7 4 -36 7 -65 6 l-54 -1 6 972 c3 535 9 975 13 979 10 9 58
13 190 14 61 1 112 -1 112 -5z m2115 -13 c6 -6 8 -1928 2 -1934 -2 -2 -62 -6
-133 -8 -138 -5 -189 -11 -227 -25 -14 -6 -27 -8 -30 -5 -12 12 -392 -130
-422 -157 -5 -5 -17 -9 -26 -9 -10 0 -19 -4 -21 -9 -1 -4 -32 -24 -68 -43 -36
-18 -91 -51 -123 -71 -31 -20 -59 -37 -60 -37 -2 0 -3 418 -3 928 1 810 3 931
16 948 81 102 169 186 240 232 76 49 177 102 192 102 7 0 26 7 41 15 16 8 38
16 50 18 12 2 47 11 77 20 62 18 100 25 180 34 30 3 56 7 58 8 6 5 252 -1 257
-7z m-2666 -469 c-6 -12 -7 -19 -2 -16 9 6 9 -215 -1 -231 -3 -6 -2 -13 4 -17
6 -4 8 -11 4 -16 -7 -12 -8 -178 0 -186 3 -3 3 -10 0 -15 -3 -5 -7 -266 -8
-581 -3 -622 -5 -602 53 -631 14 -7 49 -12 76 -10 160 10 328 2 445 -21 9 -2
34 -6 55 -9 20 -4 41 -8 45 -11 3 -2 22 -7 40 -10 101 -18 430 -160 430 -186
0 -5 3 -8 8 -7 9 4 122 -75 122 -85 0 -5 -4 -6 -8 -3 -5 3 -19 7 -33 10 -13 3
-58 14 -99 25 -85 24 -215 47 -310 57 -132 13 -474 8 -610 -10 -60 -8 -127
-19 -145 -23 -18 -4 -61 -11 -110 -18 -11 -2 -21 -4 -22 -4 -2 -1 -5 -1 -8 -1
-3 -1 -23 -7 -45 -15 -39 -14 -40 -13 -41 8 -4 108 -3 2031 1 2037 3 5 39 10
80 12 82 3 99 -6 79 -43z m3063 -37 c-1 -42 -3 -84 -3 -92 0 -8 0 -62 0 -120
0 -58 1 -116 2 -130 1 -26 1 -41 0 -75 -1 -20 -1 -105 0 -160 0 -16 0 -37 -1
-45 0 -8 0 -26 1 -40 1 -26 1 -42 0 -75 -1 -11 -1 -42 0 -70 0 -27 0 -59 -1
-70 -1 -33 -1 -238 1 -265 1 -26 1 -41 0 -75 -1 -11 -1 -42 0 -70 0 -27 0 -59
-1 -70 -1 -33 -1 -238 1 -265 1 -26 1 -41 0 -75 -1 -11 -1 -45 -1 -75 0 -30 0
-66 0 -80 0 -14 1 -40 3 -58 2 -18 0 -35 -4 -38 -5 -3 -6 -11 -2 -19 6 -18 10
-18 -74 -1 -158 34 -282 52 -408 62 -91 8 -415 11 -415 5 0 -4 -19 -5 -42 -5
-55 2 -231 -24 -323 -47 -22 -6 -47 -11 -55 -13 -9 -1 -21 -6 -29 -10 -9 -6
-12 -5 -9 4 2 8 13 18 24 24 10 6 21 14 24 17 10 13 257 137 325 163 39 15 79
31 90 36 23 11 168 50 205 56 112 17 156 18 412 11 62 -2 70 0 95 26 l28 27 0
843 0 842 65 5 c99 8 95 10 92 -78z"/>
</g>
</svg>
